<?xml version="1.0" encoding="UTF-8"?>
<!DOCTYPE svg PUBLIC "-//W3C//DTD SVG 1.1//EN" "http://www.w3.org/Graphics/SVG/1.1/DTD/svg11.dtd">
<!-- Creator: CorelDRAW 2020 (64 Bit) -->
<svg xmlns="http://www.w3.org/2000/svg" xml:space="preserve" width="76px" height="117px" version="1.1" style="shape-rendering:geometricPrecision; text-rendering:geometricPrecision; image-rendering:optimizeQuality; fill-rule:evenodd; clip-rule:evenodd"
viewBox="0 0 76 117.952"
 xmlns:xlink="http://www.w3.org/1999/xlink"
 xmlns:xodm="http://www.corel.com/coreldraw/odm/2003">
 <defs>
  <style type="text/css">
   <![CDATA[
    .fil0 {fill:#49AA26;fill-rule:nonzero}
   ]]>
  </style>
 </defs>
 <g id="Camada_x0020_1">
  <metadata id="CorelCorpID_0Corel-Layer"/>
  <path class="fil0" d="M75.794 79.73c0,4.515 -1.317,8.654 -3.95,12.792 -2.446,3.951 -6.208,7.149 -11.288,9.971 -4.891,2.634 -10.911,4.327 -17.683,4.891l0 10.911 -10.158 0 0 -10.911c-9.782,-0.941 -17.871,-3.574 -23.891,-8.089 -6.02,-4.515 -9.03,-10.347 -9.03,-17.872l19 0c0.376,3.575 1.693,6.585 3.951,8.842 2.445,2.257 5.643,3.763 9.97,4.327l0 -29.723c-6.96,-1.693 -12.792,-3.198 -17.119,-4.703 -4.327,-1.693 -8.089,-4.138 -11.287,-7.525 -3.01,-3.574 -4.515,-8.277 -4.515,-14.109 0,-7.524 3.01,-13.732 9.03,-18.623 6.02,-4.891 14.109,-7.901 23.891,-8.654l0 -10.911 10.158 0 0 10.911c9.218,0.753 16.743,3.198 22.198,7.525 5.644,4.327 8.842,10.159 9.594,17.683l-19.188 0c-0.376,-2.822 -1.505,-5.267 -3.762,-7.524 -2.258,-2.258 -5.079,-3.763 -8.842,-4.516l0 29.159c7.149,1.505 12.792,3.01 17.119,4.703 4.515,1.505 8.089,3.95 11.287,7.525 3.01,3.198 4.515,7.901 4.515,13.92zm-57.94 -42.138c0,3.762 1.316,6.772 3.95,8.841 2.445,2.07 6.208,3.763 10.911,4.891l0 -27.277c-4.515,0.376 -8.089,1.882 -10.911,4.139 -2.634,2.445 -3.95,5.455 -3.95,9.406zm25.019 57c4.703,-0.564 8.278,-2.258 10.911,-4.703 2.634,-2.634 3.951,-5.832 3.951,-9.406 0,-3.574 -1.317,-6.396 -3.951,-8.465 -2.445,-2.07 -6.208,-3.575 -10.911,-4.891l0 27.465z"/>
 </g>
</svg>
