<svg width="172" height="24" viewBox="0 0 172 24" fill="none" xmlns="http://www.w3.org/2000/svg">
<path d="M171.999 17.325C171.999 18.1057 171.773 18.8396 171.321 19.5266C170.886 20.2136 170.235 20.7914 169.366 21.2598C168.515 21.7282 167.502 22.0093 166.326 22.103V24.0001H164.561V22.103C162.86 21.9624 161.485 21.5018 160.435 20.7211C159.385 19.9404 158.86 18.9099 158.86 17.6295H162.172C162.227 18.2384 162.453 18.7459 162.851 19.1519C163.249 19.5422 163.819 19.7921 164.561 19.9014V14.7487C163.349 14.4832 162.362 14.2178 161.602 13.9523C160.842 13.6713 160.191 13.2341 159.648 12.6407C159.123 12.0474 158.86 11.2355 158.86 10.2049C158.86 8.90894 159.385 7.83936 160.435 6.99619C161.485 6.13741 162.86 5.63776 164.561 5.49723V3.6001H166.326V5.49723C167.918 5.62214 169.194 6.05934 170.153 6.80882C171.131 7.54269 171.683 8.55762 171.809 9.8536H168.497C168.443 9.36956 168.226 8.94017 167.846 8.56543C167.466 8.17507 166.959 7.90963 166.326 7.7691V12.8281C167.538 13.0779 168.524 13.3434 169.285 13.6244C170.045 13.8899 170.687 14.3193 171.212 14.9126C171.737 15.4903 171.999 16.2945 171.999 17.325ZM162.009 10.0644C162.009 10.7046 162.227 11.2042 162.661 11.5634C163.113 11.9225 163.747 12.2113 164.561 12.4299V7.69883C163.783 7.77691 163.159 8.01893 162.688 8.4249C162.236 8.83087 162.009 9.37737 162.009 10.0644ZM166.326 19.9014C167.122 19.7921 167.746 19.5188 168.199 19.0816C168.651 18.6288 168.877 18.0901 168.877 17.4655C168.877 16.841 168.651 16.3569 168.199 16.0134C167.764 15.6543 167.14 15.3654 166.326 15.1468V19.9014Z" fill="#49AA26"/>
</svg>